<svg xmlns="http://www.w3.org/2000/svg" x="0px" y="0px" width="192" height="192" viewBox="0 0 172 172"
    style=" fill:#000000;">
    <g fill="none" fill-rule="nonzero" stroke="none" stroke-width="1" stroke-linecap="butt" stroke-linejoin="miter"
        stroke-miterlimit="10" stroke-dasharray="" stroke-dashoffset="0" font-family="none" font-weight="none"
        font-size="none" text-anchor="none" style="mix-blend-mode: normal">
        <path d="M0,172v-172h172v172z" fill="none"></path>
        <path
            d="M86,172c-47.49649,0 -86,-38.50351 -86,-86v0c0,-47.49649 38.50351,-86 86,-86v0c47.49649,0 86,38.50351 86,86v0c0,47.49649 -38.50351,86 -86,86z"
            fill="none"></path>
        <path
            d="M86,168.56c-45.59663,0 -82.56,-36.96337 -82.56,-82.56v0c0,-45.59663 36.96337,-82.56 82.56,-82.56v0c45.59663,0 82.56,36.96337 82.56,82.56v0c0,45.59663 -36.96337,82.56 -82.56,82.56z"
            fill="none"></path>
        <g fill="#ffffff">
            <path
                d="M150.5,21.5h-129v129h129zM64.5,121.83333h-18.0815v-50.16667h18.0815zM55.14033,62.47183c-5.5255,0 -9.21633,-3.68367 -9.21633,-8.6c0,-4.91633 3.68367,-8.6 9.8255,-8.6c5.5255,0 9.21633,3.68367 9.21633,8.6c0,4.91633 -3.68367,8.6 -9.8255,8.6zM129,121.83333h-17.501v-27.41967c0,-7.58233 -4.6655,-9.331 -6.41417,-9.331c-1.74867,0 -7.58233,1.16817 -7.58233,9.331c0,1.16817 0,27.41967 0,27.41967h-18.0815v-50.16667h18.0815v7.00183c2.32917,-4.085 6.99467,-7.00183 15.74517,-7.00183c8.7505,0 15.75233,7.00183 15.75233,22.747z">
            </path>
        </g>
    </g>
</svg>